<svg width="512" height="299" viewBox="0 0 512 299" fill="none" xmlns="http://www.w3.org/2000/svg">
<g clip-path="url(#clip0_2253_12425)">
<rect width="512" height="299" rx="10" fill="#FAFAFF"/>
<path d="M511.993 0H0C0 0 0 145.903 0 145.909C0 145.442 34.2831 154.879 37.0888 155.938C47.2945 159.777 57.2886 164.035 66.6342 169.303C84.7451 179.523 99.1355 193.236 108.447 210.333C119.527 230.683 129.289 248.815 156.376 254.622C186.475 261.074 219.959 256.744 250.549 255.734C282.88 254.663 315.756 253.192 348.019 255.907C390.76 259.507 425.466 280.258 461.34 299H512V0H511.993Z" fill="url(#paint0_linear_2253_12425)"/>
<path d="M512 0H0C0 0 0 127.296 0 127.326C0 124.39 40.2773 124.755 44.2846 125.185C57.1392 126.579 68.9835 130.591 80.0017 136.476C98.106 146.145 113.773 159.373 126.416 174.371C137.66 187.706 144.698 204.779 161.553 213.695C177.493 222.133 198.601 224.376 216.876 223.209C237.001 221.924 252.764 213.528 270.432 206.005C288.106 198.482 306.688 196.27 326.164 198.261C356.53 201.371 372.784 216.685 390.465 236.73C403.954 252.021 421.055 256.351 439.931 264.579C450.021 268.98 458.622 275.439 467.04 281.909C471.101 285.031 484.782 299 490.407 299H511.993V0H512Z" fill="url(#paint1_linear_2253_12425)"/>
<path d="M128.464 153.51C151.859 168.23 176.073 179.177 204.015 186.357C235.616 194.482 267.134 197.651 299.95 194.847C331.885 192.115 363.076 187.798 394.015 197.902C415.007 204.754 434.005 215.3 453.195 225.249C462.609 230.133 472.098 234.934 481.949 239.113C485.499 240.62 512 248.889 512 250.001V0H0V113.034C46.7695 108.998 87.8933 127.168 124.396 150.909C125.754 151.788 127.106 152.655 128.464 153.51Z" fill="url(#paint2_linear_2253_12425)"/>
<path d="M32.0853 75.354C53.5962 99.3775 80.6775 122.091 114.913 130.853C148.2 139.375 181.658 132.563 215.484 132.479C250.245 132.39 272.07 146.151 299.049 163.135C323.092 178.266 353.348 188.851 383.331 183.571C399.005 180.808 412.686 173.404 427.22 167.968C440.975 162.83 455.523 159.206 470.269 157.065C474.522 156.449 512 153.238 512 154.912V0H0V51.462C11.817 58.2498 23.3335 65.1333 32.0853 75.354Z" fill="url(#paint3_linear_2253_12425)"/>
<path d="M223.915 79.027C253.065 101.367 268.11 135.535 298.148 150.854C312.627 158.239 328.97 160.189 344.958 155.536C361.178 150.819 374.415 140.229 390.915 136.21C410.078 131.546 426.988 139.78 445.303 143.29C471.545 148.313 500.361 132.126 512 111.921V0H0V65.22C2.04117 67.6298 2.72384 91.9549 49.152 96.6669C80.5547 99.854 105.404 92.2898 121.173 85.2039C187.959 55.21 216.037 72.9875 223.915 79.027Z" fill="url(#paint4_linear_2253_12425)"/>
<path d="M68.2667 54.4165C119.924 72.5533 169.984 68.1701 221.184 62.7883C247.125 59.7984 273.067 57.4064 296.277 67.5721C350.208 90.8935 403.456 121.391 464.896 114.813C481.075 113.324 496.722 108.576 512 102.746V0H0V20.3135C3.08565 21.8384 6.2464 23.2735 9.55733 24.5173C29.3547 31.6931 48.5922 47.5098 68.2667 54.4165Z" fill="url(#paint5_linear_2253_12425)"/>
</g>
<defs>
<linearGradient id="paint0_linear_2253_12425" x1="175.115" y1="234.228" x2="510.493" y2="-85.9594" gradientUnits="userSpaceOnUse">
<stop stop-color="#FAFAFA"/>
<stop offset="1" stop-color="#D8D7DB"/>
</linearGradient>
<linearGradient id="paint1_linear_2253_12425" x1="140.654" y1="250.538" x2="426.061" y2="-75.2781" gradientUnits="userSpaceOnUse">
<stop stop-color="#FAFAFA"/>
<stop offset="0.1957" stop-color="#F1F1F4"/>
<stop offset="0.54" stop-color="#E7E7ED"/>
<stop offset="0.9946" stop-color="#E4E4EB"/>
</linearGradient>
<linearGradient id="paint2_linear_2253_12425" x1="175.115" y1="195.843" x2="453.383" y2="-121.889" gradientUnits="userSpaceOnUse">
<stop stop-color="#FAFAFA"/>
<stop offset="1" stop-color="#D8D7DB"/>
</linearGradient>
<linearGradient id="paint3_linear_2253_12425" x1="142.833" y1="176.595" x2="390.66" y2="-106.298" gradientUnits="userSpaceOnUse">
<stop stop-color="#FAFAFA"/>
<stop offset="1" stop-color="#D8D7DB"/>
</linearGradient>
<linearGradient id="paint4_linear_2253_12425" x1="96.6599" y1="145.075" x2="430.921" y2="-84.2367" gradientUnits="userSpaceOnUse">
<stop offset="0.1161" stop-color="white"/>
<stop offset="0.2777" stop-color="#F7F7F7"/>
<stop offset="0.6268" stop-color="#ECECEC"/>
<stop offset="1" stop-color="#E8E8E8"/>
</linearGradient>
<linearGradient id="paint5_linear_2253_12425" x1="145.726" y1="147.966" x2="378.086" y2="-117.3" gradientUnits="userSpaceOnUse">
<stop stop-color="white"/>
<stop offset="0.3517" stop-color="#F9F9F9"/>
<stop offset="1" stop-color="#F2F2F2"/>
</linearGradient>
<clipPath id="clip0_2253_12425">
<rect width="512" height="299" rx="10" fill="white"/>
</clipPath>
</defs>
</svg>
