<svg width="32" height="32" viewBox="0 0 32 32" fill="none" xmlns="http://www.w3.org/2000/svg">
<path d="M6.85714 4C5.28599 4 4 5.28599 4 6.85714V25.1429C4 26.714 5.28599 28 6.85714 28H25.1429C26.714 28 28 26.714 28 25.1429V6.85714C28 5.28599 26.714 4 25.1429 4H6.85714ZM6.85714 5.14286H25.1429C26.0963 5.14286 26.8571 5.90372 26.8571 6.85714V25.1429C26.8571 26.0963 26.0963 26.8571 25.1429 26.8571H6.85714C5.90372 26.8571 5.14286 26.0963 5.14286 25.1429V6.85714C5.14286 5.90372 5.90372 5.14286 6.85714 5.14286Z" fill="#94A1A8"/>
<path fill-rule="evenodd" clip-rule="evenodd" d="M10 10H11.7143V11.7143H10V10ZM13.4286 13.4286H11.7143V11.7143H13.4286V13.4286ZM15.1429 15.1429H13.4286V13.4286H15.1429V15.1429ZM16.8571 15.1429H15.1429V16.8571H13.4286V18.5714H11.7143V20.2857H10V22H11.7143V20.2857H13.4286L13.4286 18.5714H15.1429V16.8571H16.8571V18.5714H18.5714V20.2857H20.2857V22H22V20.2857H20.2857V18.5714H18.5714V16.8571H16.8571V15.1429ZM18.5714 13.4286V15.1429H16.8571L16.8571 13.4286H18.5714ZM20.2857 11.7143V13.4286H18.5714V11.7143H20.2857ZM20.2857 11.7143V10H22V11.7143H20.2857Z" fill="#94A1A8"/>
</svg>
