<svg width="32" height="32" viewBox="0 0 32 32" fill="none" xmlns="http://www.w3.org/2000/svg">
<path d="M6.85714 4C5.28599 4 4 5.28599 4 6.85714V25.1429C4 26.714 5.28599 28 6.85714 28H25.1429C26.714 28 28 26.714 28 25.1429V6.85714C28 5.28599 26.714 4 25.1429 4H6.85714ZM6.85714 5.14286H25.1429C26.0963 5.14286 26.8571 5.90372 26.8571 6.85714V25.1429C26.8571 26.0963 26.0963 26.8571 25.1429 26.8571H6.85714C5.90372 26.8571 5.14286 26.0963 5.14286 25.1429V6.85714C5.14286 5.90372 5.90372 5.14286 6.85714 5.14286Z" fill="#94A1A8"/>
<path d="M9.8667 21H21.8667V23H9.8667V21Z" fill="#94A1A8"/>
</svg>
